# xmcd
#
# Track frame offsets: 
#        150
#        20178
#        36831
#        53392
#        74666
#        90950
#        109268
#        129187
#        147335
#        168460
#        189770
#        210116
#
# Disc length: 3086 seconds
#
# Revision: 0
# Processed by: cddbd v1.5.2PL0 Copyright (c) Steve Scherf et al.
# Submitted via: ExactAudioCopy v1.3
#
DISCID=9a0c0c0c
DTITLE=Mighty Mike Schermer - Bad Tattoo
DYEAR=2019
DGENRE=Blues
TTITLE0=She Won't Be Coming Back
TTITLE1=Lover's Hall Of Fame
TTITLE2=How Much Longer
TTITLE3=I Can't Let It Go
TTITLE4=Bad Tattoo
TTITLE5=Ain't That The Way Love Goes
TTITLE6=One Thing Every Day
TTITLE7=Hey Francine!
TTITLE8=Baby Down The Well
TTITLE9=Suffocating Love
TTITLE10=Stop Looking For Love
TTITLE11=Up All Night
EXTD=
EXTT0=
EXTT1=
EXTT2=
EXTT3=
EXTT4=
EXTT5=
EXTT6=
EXTT7=
EXTT8=
EXTT9=
EXTT10=
EXTT11=
PLAYORDER=
